<svg version="1.1" id="Layer_1" xmlns="http://www.w3.org/2000/svg" xmlns:xlink="http://www.w3.org/1999/xlink" x="0px" y="0px"
	 width="100%" viewBox="0 0 1920 720" enable-background="new 0 0 1920 720" xml:space="preserve">
<path fill="#FFFFFF" opacity="1.000000" stroke="none" 
	d="
M1208.000000,721.000000 
	C806.833313,721.000000 406.166656,720.993896 5.500023,721.093018 
	C1.750935,721.093933 0.904957,720.249207 0.906598,716.499939 
	C1.010331,479.500000 1.010331,242.500000 0.906598,5.500041 
	C0.904957,1.750811 1.750997,0.906695 5.500014,0.907264 
	C642.500000,1.003858 1279.500000,1.003859 1916.500000,0.907264 
	C1920.249023,0.906695 1921.095093,1.750810 1921.093384,5.500041 
	C1920.989624,242.500000 1920.989624,479.500000 1921.093384,716.499939 
	C1921.095093,720.249207 1920.249146,721.095093 1916.500000,721.093445 
	C1680.500000,720.989624 1444.500000,721.000000 1208.000000,721.000000 
z"/>
<path fill="#020202" opacity="1.000000" stroke="none" 
	d="
M559.179443,280.999908 
	C559.142456,261.005829 559.179749,241.511215 559.026672,222.018066 
	C558.975525,215.501175 557.875671,209.071060 555.886597,202.844818 
	C551.744385,189.878937 543.566406,183.346451 530.505554,182.447495 
	C516.861328,181.508377 506.204681,187.261292 500.454926,198.822983 
	C495.989136,207.802856 494.602875,217.532059 494.017609,227.386246 
	C493.008972,244.368759 493.523621,261.374878 493.493744,278.370605 
	C493.430206,314.536133 493.480591,350.701874 493.480560,386.867523 
	C493.480560,397.376831 490.729950,400.100616 480.117950,400.103882 
	C465.285034,400.108459 450.452087,400.123657 435.619202,400.097443 
	C427.480743,400.083069 424.180695,396.737854 424.180054,388.521667 
	C424.173584,304.190674 424.173737,219.859695 424.183075,135.528702 
	C424.184052,126.768417 427.445923,123.548920 436.324982,123.533134 
	C450.324554,123.508255 464.324249,123.504715 478.323761,123.534752 
	C486.937927,123.553238 490.161285,126.732483 490.191284,135.219452 
	C490.225830,144.994400 490.199341,154.769547 490.718872,165.022614 
	C502.850647,135.396408 523.836426,118.550278 556.397949,117.987480 
	C589.770691,117.410675 609.836914,135.631561 622.259277,164.697495 
	C624.396118,163.712311 624.421082,161.684860 625.120422,160.159470 
	C649.049927,107.963173 717.654480,107.026077 747.421204,141.950089 
	C757.382202,153.636917 761.463684,167.412186 762.987061,182.274384 
	C764.401855,196.078156 763.683350,209.909668 763.670715,223.736145 
	C763.621338,277.734589 763.652344,331.733093 763.645508,385.731598 
	C763.645325,387.396667 763.648499,389.070099 763.495117,390.725250 
	C762.953735,396.566986 759.604614,400.013428 753.828613,400.056213 
	C737.163391,400.179688 720.496033,400.177032 703.830750,400.056702 
	C698.373718,400.017334 694.851318,396.501099 694.273438,391.086639 
	C694.114990,389.602234 694.195312,388.090363 694.197815,386.591125 
	C694.282288,336.595032 694.399109,286.598999 694.429871,236.602875 
	C694.434875,228.441650 694.362793,220.259384 693.799988,212.123276 
	C692.712341,196.399612 685.926697,187.036026 674.050415,184.104294 
	C658.727478,180.321732 644.136536,185.865234 636.129333,198.554214 
	C630.867493,206.892578 629.668457,216.367477 629.177673,225.855743 
	C628.592773,237.162598 628.519165,248.503906 628.501892,259.830688 
	C628.436951,302.496063 628.486328,345.161621 628.489136,387.827087 
	C628.489746,397.005554 625.407410,400.093964 616.209229,400.101135 
	C601.042969,400.112976 585.876709,400.124451 570.710510,400.095673 
	C562.633789,400.080322 559.197266,396.647736 559.191223,388.494568 
	C559.164917,352.829681 559.179626,317.164825 559.179443,280.999908 
z"/>
<path fill="#020202" opacity="1.000000" stroke="none" 
	d="
M820.360352,176.423645 
	C828.548950,154.781235 842.848145,138.843475 863.358093,129.437668 
	C901.449463,111.969223 940.654175,110.275047 979.879028,125.243111 
	C1008.695984,136.239563 1023.605896,158.226898 1026.044189,188.872208 
	C1026.984131,200.684479 1026.877075,212.501694 1026.844849,224.330490 
	C1026.774048,250.322723 1027.149780,276.320953 1026.702393,302.305725 
	C1026.413940,319.059082 1031.253784,333.623779 1041.435059,346.833313 
	C1051.802856,360.284912 1051.449707,361.182281 1038.569336,372.199127 
	C1028.948242,380.428253 1019.437012,388.786041 1009.888428,397.099792 
	C1002.273071,403.730377 998.356140,403.706146 990.818054,397.265106 
	C981.988342,389.720581 974.712524,380.866425 968.723450,370.986389 
	C966.627197,367.528198 965.364136,367.696136 962.634521,370.419708 
	C949.911072,383.115204 936.060303,394.275909 918.356018,399.295898 
	C900.285645,404.419647 881.851135,405.634338 863.477417,401.682129 
	C836.134827,395.800629 817.979492,379.222992 810.960327,352.043457 
	C803.393250,322.742462 806.547058,294.736420 825.289673,269.906250 
	C837.576843,253.628311 854.513733,243.972214 873.734070,238.036789 
	C894.713867,231.558014 916.427856,229.325302 938.130188,227.053665 
	C943.100098,226.533463 948.075317,226.063599 953.041626,225.512222 
	C954.487915,225.351639 956.034668,225.347656 955.977966,223.067642 
	C955.733826,213.258621 956.737488,203.379303 954.531860,193.681824 
	C951.094482,178.568375 940.072510,169.754288 923.466370,169.177475 
	C903.205139,168.473709 885.330505,178.542664 880.958862,199.881851 
	C879.805847,205.510040 875.184509,209.401062 868.499634,208.393890 
	C854.678162,206.311508 840.698914,205.282150 826.789185,203.776917 
	C817.146118,202.733383 814.334534,198.763306 816.635193,189.255997 
	C817.651611,185.055756 819.003784,180.936752 820.360352,176.423645 
z"/>
<path fill="#020202" opacity="1.000000" stroke="none" 
	d="
M319.287170,386.698456 
	C314.763824,381.525146 311.101410,376.149841 307.631195,370.661987 
	C305.905243,367.932556 304.839203,367.358307 302.240326,370.006500 
	C294.646667,377.744171 286.613403,385.115570 277.114227,390.448151 
	C249.024170,406.217194 219.504440,408.183105 189.423386,397.529816 
	C173.389420,391.851379 161.310074,380.516113 154.827164,364.721985 
	C141.160202,331.425476 143.004807,299.166138 164.798615,269.613068 
	C177.666611,252.163712 196.133163,242.680695 216.664047,236.917816 
	C239.892227,230.397842 263.828918,228.468658 287.679138,226.010452 
	C295.068359,225.248840 295.142181,225.373093 295.065674,218.100967 
	C294.993958,211.279846 295.473511,204.441345 294.375885,197.647522 
	C291.389130,179.161240 279.943207,169.185608 261.165314,169.126816 
	C241.139297,169.064102 224.516815,179.249969 220.071426,199.846222 
	C218.566406,206.819244 214.913406,208.963409 207.718414,208.206955 
	C193.636963,206.726517 179.552948,205.268555 165.479141,203.718185 
	C156.502930,202.729370 153.710464,198.627151 155.666702,189.772858 
	C162.076630,160.760513 178.615967,139.521957 205.863693,127.885201 
	C243.627975,111.757126 282.248169,110.531998 320.596008,125.916412 
	C347.871613,136.858887 362.240265,157.933380 365.041412,187.091949 
	C366.351471,200.729156 365.976654,214.386124 365.958252,228.045181 
	C365.925476,252.373032 366.321472,276.708588 365.823547,301.026276 
	C365.466492,318.463196 370.275970,333.690826 381.018494,347.426697 
	C390.820587,359.960175 390.385925,361.302429 378.343414,371.665558 
	C368.367279,380.250549 358.454102,388.908691 348.517548,397.539612 
	C341.502350,403.633057 337.166199,403.684509 330.244751,397.431335 
	C326.541046,394.085205 323.085938,390.463959 319.287170,386.698456 
z"/>
<path fill="#020202" opacity="1.000000" stroke="none" 
	d="
M1638.087646,234.303192 
	C1637.205566,251.759369 1637.675415,268.757599 1637.636841,285.749725 
	C1637.559326,319.907562 1637.626465,354.065704 1637.595581,388.223724 
	C1637.587891,396.682556 1634.181885,400.080627 1625.802612,400.096283 
	C1610.306519,400.125244 1594.810303,400.135529 1579.314331,400.092133 
	C1571.874878,400.071289 1568.286743,396.531830 1568.284302,389.026245 
	C1568.256714,304.047699 1568.261963,219.069168 1568.284546,134.090637 
	C1568.286377,127.208618 1571.787720,123.610519 1578.755249,123.560829 
	C1593.750732,123.453888 1608.747925,123.454887 1623.743408,123.561607 
	C1630.461426,123.609421 1633.850098,127.165131 1633.870972,133.817398 
	C1633.907959,145.632294 1633.881226,157.447372 1633.881226,169.802292 
	C1635.909668,168.438904 1636.126953,166.536209 1636.811035,165.022049 
	C1642.838501,151.679779 1650.102051,139.229294 1662.105103,130.272980 
	C1703.082520,99.696533 1762.484253,124.061363 1771.989502,175.271744 
	C1774.801025,190.419418 1775.370728,205.720734 1775.386719,221.054337 
	C1775.445068,276.873505 1775.415771,332.692780 1775.408203,388.511993 
	C1775.407104,396.803253 1772.206543,400.079376 1764.031372,400.096222 
	C1748.368652,400.128479 1732.705811,400.135620 1717.043213,400.091675 
	C1709.547852,400.070648 1706.072021,396.566345 1706.072998,389.057343 
	C1706.079712,337.570770 1706.112427,286.084167 1706.136108,234.597595 
	C1706.140625,224.582016 1705.742798,214.603622 1703.060181,204.870453 
	C1699.931763,193.520096 1693.891846,184.864975 1681.503418,182.515320 
	C1668.591553,180.066360 1658.156006,184.557663 1650.281982,194.765884 
	C1643.257568,203.872833 1640.824829,214.814941 1639.029053,225.894775 
	C1638.603271,228.521698 1638.406006,231.185654 1638.087646,234.303192 
z"/>
<path fill="#010101" opacity="1.000000" stroke="none" 
	d="
M1303.132080,237.164871 
	C1305.989502,212.643616 1312.081421,189.576508 1324.964722,168.793762 
	C1346.923218,133.371368 1379.106079,116.522797 1420.533447,118.207939 
	C1461.943726,119.892403 1491.957275,140.299835 1511.182495,176.606094 
	C1527.214844,206.882584 1531.814209,239.642838 1530.395630,273.425598 
	C1529.107056,304.114868 1521.318359,332.890167 1503.817261,358.565826 
	C1465.881226,414.221466 1397.470825,415.430389 1358.101074,389.298492 
	C1333.932495,373.256592 1319.657715,350.097382 1310.988403,323.074066 
	C1302.047363,295.204041 1300.338867,266.601532 1303.132080,237.164871 
z"/>
<path fill="#F8982D" opacity="1.000000" stroke="none" 
	d="
M986.113403,526.117188 
	C1039.332886,515.047241 1090.646484,499.236389 1140.422485,478.449585 
	C1143.485840,477.170380 1146.515869,475.827179 1149.979736,475.817444 
	C1156.453369,475.799194 1161.619873,478.914093 1163.459961,484.166931 
	C1165.176147,489.066864 1163.302368,494.645020 1158.131592,498.619568 
	C1145.965332,507.971191 1133.088013,516.284790 1119.860840,524.042236 
	C1059.423828,559.486572 994.160400,581.770447 925.602661,594.939026 
	C888.897156,601.989319 851.859253,605.880432 814.447571,606.336548 
	C736.028809,607.292603 659.899536,594.696289 586.210693,567.869934 
	C510.356018,540.255188 442.382629,499.358612 382.104614,445.669800 
	C380.861877,444.562958 379.627655,443.429962 378.517212,442.194366 
	C375.679565,439.036835 374.588470,435.375183 377.173706,431.739075 
	C379.803711,428.040039 383.827362,427.937103 387.508698,429.804199 
	C394.779297,433.491638 401.838959,437.593384 409.006348,441.486053 
	C490.219452,485.593811 576.582397,514.842957 667.491089,530.896912 
	C721.271729,540.394226 775.482849,544.857727 830.096130,543.895569 
	C878.489746,543.042969 926.444824,537.841064 973.955994,528.587097 
	C977.876404,527.823425 981.782410,526.986145 986.113403,526.117188 
z"/>
<path fill="#010101" opacity="1.000000" stroke="none" 
	d="
M1164.000000,122.840759 
	C1196.491333,122.841156 1228.482788,122.833733 1260.474121,122.846809 
	C1269.814453,122.850632 1272.811890,125.820175 1272.831543,135.016388 
	C1272.846069,141.847839 1272.349854,148.721710 1272.945679,155.500671 
	C1273.789917,165.105957 1270.419434,172.994034 1265.045166,180.569687 
	C1250.687378,200.808716 1236.518921,221.182190 1222.280640,241.505997 
	C1207.468750,262.648407 1192.653320,283.788361 1177.878662,304.956848 
	C1176.966064,306.264374 1175.597534,307.370514 1175.421631,309.592163 
	C1185.915771,309.747131 1196.335693,309.767059 1206.702881,310.956543 
	C1227.570801,313.350677 1247.494385,318.768005 1266.281982,328.367188 
	C1274.344971,332.486847 1278.018677,338.655579 1277.893677,347.576630 
	C1277.734985,358.904663 1277.896118,370.236847 1277.841431,381.566833 
	C1277.792358,391.722870 1271.883667,395.371613 1262.868042,391.130066 
	C1205.953613,364.353302 1149.105713,364.272003 1092.385010,391.756927 
	C1085.016968,395.327240 1078.791382,391.823334 1078.707886,383.589264 
	C1078.564575,369.429749 1078.661499,355.265991 1078.821045,341.105896 
	C1078.915649,332.706146 1081.789673,325.244141 1086.623779,318.333130 
	C1118.030518,273.433990 1149.335449,228.463623 1180.637329,183.491348 
	C1181.541138,182.192932 1182.936768,181.107010 1183.086914,179.230515 
	C1181.365845,178.144058 1179.513184,178.692307 1177.782715,178.689224 
	C1152.122925,178.643524 1126.463257,178.664917 1100.803467,178.650162 
	C1090.879395,178.644455 1088.054321,175.779083 1088.051392,165.813614 
	C1088.048340,155.149826 1088.019531,144.485931 1088.059570,133.822296 
	C1088.088501,126.114220 1091.294922,122.869957 1099.015503,122.855057 
	C1120.510376,122.813553 1142.005127,122.840714 1164.000000,122.840759 
z"/>
<path fill="#F8982E" opacity="1.000000" stroke="none" 
	d="
M1195.365112,556.370361 
	C1191.834106,560.637573 1187.979248,564.076050 1184.090210,567.467896 
	C1181.943115,569.340576 1179.569824,570.915405 1176.611084,571.191040 
	C1172.608032,571.563965 1170.675537,569.699707 1170.798096,565.674316 
	C1170.865845,563.445312 1171.858154,561.502808 1172.650391,559.491943 
	C1182.229858,535.177124 1191.858643,510.877502 1197.385254,485.214020 
	C1198.862915,478.352814 1199.592896,471.428345 1199.368530,464.386932 
	C1199.119385,456.569672 1195.286865,451.620941 1187.927368,449.249390 
	C1179.758179,446.616852 1171.326416,445.870056 1162.807861,445.654327 
	C1137.927490,445.024261 1113.260254,447.577515 1088.616089,450.530029 
	C1084.885010,450.977051 1080.418091,452.359558 1078.576904,447.698120 
	C1076.749268,443.071167 1080.474243,440.199310 1083.692505,437.916321 
	C1096.460938,428.858582 1110.617065,422.687561 1125.722656,418.744354 
	C1157.996338,410.319458 1190.470581,408.813416 1223.031372,416.876373 
	C1237.320801,420.414856 1240.478394,424.192657 1240.009155,438.876892 
	C1238.600464,482.949219 1224.001099,522.181763 1195.365112,556.370361 
z"/>
<path fill="#FDFDFD" opacity="1.000000" stroke="none" 
	d="
M955.963318,283.994263 
	C955.967773,298.372070 955.155945,312.131073 949.050903,324.945831 
	C942.461548,338.777069 933.039062,349.436157 917.094849,352.353699 
	C902.107666,355.096130 889.122009,347.575989 883.889648,333.270142 
	C874.253601,306.924042 886.389404,280.955719 912.748840,271.639801 
	C925.618286,267.091522 939.009583,266.006744 952.536072,265.719391 
	C955.588257,265.654541 956.105652,266.883484 956.006348,269.524170 
	C955.831360,274.175415 955.961182,278.838135 955.963318,283.994263 
z"/>
<path fill="#FDFDFD" opacity="1.000000" stroke="none" 
	d="
M253.619644,352.790100 
	C235.268326,353.104523 223.706711,343.257507 220.999054,325.422363 
	C216.327927,294.653900 232.194321,274.011475 265.087067,268.098480 
	C273.622406,266.564117 282.238007,265.942627 290.905823,265.725433 
	C293.984314,265.648315 295.268707,266.239288 295.168793,269.724152 
	C294.782990,283.178772 295.837494,296.696259 293.092285,310.032288 
	C291.118958,319.618591 287.451050,328.460846 281.490540,336.264587 
	C274.536591,345.368988 265.667969,351.358215 253.619644,352.790100 
z"/>
<path fill="#FDFDFD" opacity="1.000000" stroke="none" 
	d="
M1377.056641,284.853363 
	C1376.129395,260.906067 1375.305786,237.435715 1378.965820,214.098083 
	C1380.338745,205.344635 1382.631104,196.847824 1386.888184,188.994858 
	C1393.862183,176.130142 1404.585571,170.026627 1419.275635,171.069870 
	C1433.478271,172.078491 1442.734985,179.636353 1447.538696,192.751160 
	C1452.742554,206.958740 1454.679565,221.829285 1455.388672,236.831543 
	C1456.615845,262.790833 1457.516602,288.768951 1452.043701,314.444885 
	C1450.404175,322.135773 1447.826782,329.509155 1443.628540,336.221039 
	C1429.956909,358.077972 1401.177979,357.468048 1388.637817,335.028473 
	C1381.916992,323.001984 1379.719116,309.699585 1378.067261,296.276398 
	C1377.619995,292.642914 1377.402954,288.981079 1377.056641,284.853363 
z"/>
</svg>