<svg version="1.1" id="Layer_1" xmlns="http://www.w3.org/2000/svg" xmlns:xlink="http://www.w3.org/1999/xlink" x="0px" y="0px"
	 width="100%" viewBox="0 0 449 112" enable-background="new 0 0 449 112" xml:space="preserve">
<path fill="#FDFDFD" opacity="1.000000" stroke="none" 
	d="
M331.000000,113.000000 
	C220.666687,113.000000 110.833359,113.000000 1.000030,113.000000 
	C1.000020,75.666687 1.000020,38.333370 1.000010,1.000040 
	C150.666641,1.000026 300.333282,1.000026 449.999939,1.000013 
	C449.999939,38.333294 449.999939,75.666588 449.999969,112.999939 
	C410.500000,113.000000 371.000000,113.000000 331.000000,113.000000 
M49.403648,81.082344 
	C51.065140,82.712349 52.617928,84.473991 54.406071,85.950638 
	C64.708839,94.458687 76.183945,98.834961 89.557610,94.791580 
	C109.407906,88.790054 125.425644,65.815086 124.541542,45.023457 
	C123.600845,22.901106 106.131691,11.415741 86.219482,20.193827 
	C81.616745,22.222895 78.165565,22.338724 73.437950,20.249012 
	C54.707340,11.969660 38.301121,21.131605 35.548645,41.442291 
	C33.511204,56.476669 39.448845,69.230286 49.403648,81.082344 
M148.755066,40.247646 
	C138.356949,49.695549 138.994278,69.744034 152.566452,77.265411 
	C162.099777,82.548546 171.383682,81.368546 180.154816,74.433777 
	C180.545349,76.270737 180.870239,77.798874 181.264633,79.653999 
	C183.886475,79.513519 186.278412,79.385353 188.578400,79.262115 
	C188.578400,72.240318 188.578400,65.820953 188.578400,59.190964 
	C187.142410,59.080898 186.018448,58.927944 184.893524,58.920372 
	C180.568115,58.891239 176.219772,58.669689 171.932541,59.075348 
	C170.849167,59.177853 169.210892,61.322056 169.183868,62.557709 
	C169.154205,63.913860 170.434357,65.636909 171.634460,66.566772 
	C172.481949,67.223427 174.146896,66.825012 175.638870,66.908348 
	C170.236404,72.589638 161.226990,72.828125 155.911240,67.641106 
	C150.538635,62.398605 150.501572,52.303780 155.834671,46.784527 
	C162.127686,40.271854 169.908478,41.549789 180.224442,51.196323 
	C182.472946,49.741295 184.875946,48.186295 187.278946,46.631290 
	C185.406830,43.980560 183.550705,41.318211 181.644928,38.691910 
	C181.366928,38.308815 180.857300,38.089912 180.445908,37.808094 
	C171.491150,31.673735 159.093506,32.457638 148.755066,40.247646 
M228.268112,63.493698 
	C228.269272,67.816696 228.085495,72.153130 228.397949,76.453506 
	C228.478882,77.567680 230.100937,79.466026 231.036850,79.479385 
	C238.173706,79.581253 245.382462,79.861023 252.440933,79.016441 
	C263.036072,77.748672 270.161499,69.445305 270.965179,58.667610 
	C271.783478,47.694027 266.342133,38.584084 255.651321,36.067928 
	C248.212173,34.317078 240.228653,34.927662 232.499451,34.337624 
	C229.247833,34.089401 228.118317,35.241676 228.202332,38.555069 
	C228.404572,46.530872 228.268036,54.515266 228.268112,63.493698 
M318.759216,48.799576 
	C318.048126,49.222878 317.288879,49.582626 316.633362,50.079266 
	C309.662567,55.360371 307.683533,65.424225 312.123901,72.897682 
	C316.357086,80.022522 324.262878,81.987297 332.939453,78.119293 
	C333.581024,77.833275 334.407135,77.696434 335.090790,77.815598 
	C337.952484,78.314430 340.792542,78.937370 343.760803,79.539223 
	C343.760803,64.033791 343.760803,49.486084 343.760803,34.701469 
	C340.716614,34.701469 337.978546,34.701469 334.678711,34.701469 
	C334.678711,40.012604 334.678711,45.026428 334.678711,50.313965 
	C329.114838,47.290752 326.067413,46.962875 318.759216,48.799576 
M365.166656,47.619427 
	C362.372589,47.820408 359.429657,47.526558 356.812042,48.314034 
	C348.554504,50.798225 344.307709,62.121044 348.073181,70.875031 
	C351.708923,79.327400 361.091309,82.704216 369.311279,78.552422 
	C370.117554,78.145195 371.096313,77.628105 371.902771,77.753830 
	C374.782227,78.202728 377.621948,78.906921 380.624390,79.545952 
	C380.624390,64.005074 380.624390,49.455788 380.624390,34.760857 
	C377.531158,34.760857 374.801483,34.760857 371.682007,34.760857 
	C371.682007,40.041843 371.682007,44.957813 371.682007,50.146378 
	C369.480682,49.224869 367.712494,48.484684 365.166656,47.619427 
M384.178589,86.514549 
	C382.152405,88.839127 383.139526,90.246819 385.499207,91.532967 
	C393.510529,95.899559 403.050385,92.346481 405.825195,83.703087 
	C407.806763,77.530426 409.468994,71.255325 411.278656,65.027374 
	C412.838989,59.657558 414.406311,54.289768 415.974182,48.908577 
	C407.342407,46.830704 406.700409,47.219006 404.726105,54.658588 
	C403.322235,59.948559 401.786194,65.203445 399.951904,71.748772 
	C397.771790,64.316757 395.890442,58.454620 394.380096,52.498409 
	C393.724915,49.914734 392.493317,48.852104 389.934113,48.973347 
	C388.127411,49.058941 386.313385,48.989910 383.711151,48.989910 
	C384.078674,51.182663 384.198608,53.074291 384.727722,54.843552 
	C386.634094,61.218304 388.879761,67.498116 390.592560,73.921700 
	C391.570007,77.587471 392.622742,80.588539 397.281921,79.899117 
	C395.774231,85.463783 394.345856,86.089760 389.436340,84.689362 
	C388.066315,84.298561 386.258942,85.441116 384.178589,86.514549 
M296.868103,50.074345 
	C290.382324,45.922066 281.574249,47.104198 276.735138,52.776394 
	C271.627777,58.762936 271.637024,68.876251 276.755310,74.905853 
	C281.986847,81.068863 289.735718,82.033897 297.226410,78.873604 
	C300.411530,79.159332 303.596649,79.445053 306.837341,79.735764 
	C306.837341,68.704742 306.837341,58.639168 306.837341,47.165997 
	C303.318756,48.268257 300.496796,49.152290 296.868103,50.074345 
M213.962921,79.700035 
	C226.302673,74.879204 226.695175,66.481949 224.527298,57.861824 
	C222.846176,51.177311 214.960083,46.829556 207.594803,47.280380 
	C199.871704,47.753113 193.509674,53.139320 191.821976,60.248436 
	C189.249619,71.083946 198.605255,83.053642 213.962921,79.700035 
z"/>
<path fill="#171717" opacity="1.000000" stroke="none" 
	d="
M49.168488,80.817047 
	C39.448845,69.230286 33.511204,56.476669 35.548645,41.442291 
	C38.301121,21.131605 54.707340,11.969660 73.437950,20.249012 
	C78.165565,22.338724 81.616745,22.222895 86.219482,20.193827 
	C106.131691,11.415741 123.600845,22.901106 124.541542,45.023457 
	C125.425644,65.815086 109.407906,88.790054 89.557610,94.791580 
	C76.183945,98.834961 64.708839,94.458687 54.406071,85.950638 
	C52.617928,84.473991 51.065140,82.712349 49.168488,80.817047 
M93.077850,55.088306 
	C91.102211,56.318184 89.135551,57.562794 87.149223,58.775166 
	C81.275108,62.360485 80.655281,62.134075 78.069183,55.171009 
	C84.546974,51.150475 91.093834,47.087063 97.963028,42.823593 
	C103.882507,53.216526 105.972435,63.636013 104.099472,76.244576 
	C112.866982,65.538315 117.786522,55.005131 116.251556,42.340618 
	C114.532730,28.159164 104.303101,22.028879 90.826042,26.783272 
	C73.413216,32.926113 60.450634,54.295067 63.097244,72.494507 
	C65.012756,85.666611 77.967255,92.475044 88.577568,85.886086 
	C97.206863,80.527328 100.125664,63.173897 93.077850,55.088306 
M58.842442,48.456120 
	C63.113899,41.653698 67.385361,34.851280 71.635147,28.083374 
	C58.200089,21.333023 46.073887,26.336092 43.598690,40.605236 
	C41.329338,53.687717 46.289822,64.738525 53.726490,73.939957 
	C55.299709,65.845192 56.920429,57.506008 58.842442,48.456120 
z"/>
<path fill="#171717" opacity="1.000000" stroke="none" 
	d="
M149.028671,40.011494 
	C159.093506,32.457638 171.491150,31.673735 180.445908,37.808094 
	C180.857300,38.089912 181.366928,38.308815 181.644928,38.691910 
	C183.550705,41.318211 185.406830,43.980560 187.278946,46.631294 
	C184.875946,48.186295 182.472946,49.741295 180.224442,51.196323 
	C169.908478,41.549789 162.127686,40.271854 155.834671,46.784527 
	C150.501572,52.303780 150.538635,62.398605 155.911240,67.641106 
	C161.226990,72.828125 170.236404,72.589638 175.638870,66.908348 
	C174.146896,66.825012 172.481949,67.223427 171.634460,66.566772 
	C170.434357,65.636909 169.154205,63.913860 169.183868,62.557709 
	C169.210892,61.322056 170.849167,59.177853 171.932541,59.075348 
	C176.219772,58.669689 180.568115,58.891239 184.893524,58.920372 
	C186.018448,58.927944 187.142410,59.080898 188.578400,59.190964 
	C188.578400,65.820953 188.578400,72.240318 188.578400,79.262115 
	C186.278412,79.385353 183.886475,79.513519 181.264633,79.653999 
	C180.870239,77.798874 180.545349,76.270737 180.154816,74.433777 
	C171.383682,81.368546 162.099777,82.548546 152.566452,77.265411 
	C138.994278,69.744034 138.356949,49.695549 149.028671,40.011494 
z"/>
<path fill="#1A1A1A" opacity="1.000000" stroke="none" 
	d="
M228.268127,62.994946 
	C228.268036,54.515266 228.404572,46.530872 228.202332,38.555069 
	C228.118317,35.241676 229.247833,34.089401 232.499451,34.337624 
	C240.228653,34.927662 248.212173,34.317078 255.651321,36.067928 
	C266.342133,38.584084 271.783478,47.694027 270.965179,58.667610 
	C270.161499,69.445305 263.036072,77.748672 252.440933,79.016441 
	C245.382462,79.861023 238.173706,79.581253 231.036850,79.479385 
	C230.100937,79.466026 228.478882,77.567680 228.397949,76.453506 
	C228.085495,72.153130 228.269272,67.816696 228.268127,62.994946 
M239.846375,43.204388 
	C239.253036,44.332672 238.202530,45.439304 238.147873,46.593105 
	C237.943954,50.898972 238.066605,55.220303 238.066666,59.535831 
	C238.066711,63.572388 238.066681,67.608940 238.066681,72.320114 
	C242.741241,71.605621 246.295670,71.197906 249.792099,70.499741 
	C257.111664,69.038162 261.418701,63.150234 260.811981,55.673878 
	C260.228333,48.481819 255.201248,43.655106 247.733948,43.230827 
	C245.417526,43.099209 243.087616,43.205326 239.846375,43.204388 
z"/>
<path fill="#151515" opacity="1.000000" stroke="none" 
	d="
M319.113892,48.615875 
	C326.067413,46.962875 329.114838,47.290752 334.678711,50.313965 
	C334.678711,45.026428 334.678711,40.012604 334.678711,34.701469 
	C337.978546,34.701469 340.716614,34.701469 343.760803,34.701469 
	C343.760803,49.486084 343.760803,64.033791 343.760803,79.539223 
	C340.792542,78.937370 337.952484,78.314430 335.090790,77.815598 
	C334.407135,77.696434 333.581024,77.833275 332.939453,78.119293 
	C324.262878,81.987297 316.357086,80.022522 312.123901,72.897682 
	C307.683533,65.424225 309.662567,55.360371 316.633362,50.079266 
	C317.288879,49.582626 318.048126,49.222878 319.113892,48.615875 
M333.037415,69.456184 
	C333.685150,67.799828 334.721588,66.185440 334.905884,64.479034 
	C335.406982,59.838657 332.336792,56.260918 327.963593,55.947742 
	C323.728058,55.644428 319.879761,58.589733 320.105591,62.936718 
	C320.242340,65.569473 321.593567,68.728462 323.471161,70.539780 
	C326.116608,73.091843 329.582306,72.376732 333.037415,69.456184 
z"/>
<path fill="#161616" opacity="1.000000" stroke="none" 
	d="
M365.555481,47.681965 
	C367.712494,48.484684 369.480682,49.224869 371.682007,50.146378 
	C371.682007,44.957813 371.682007,40.041843 371.682007,34.760857 
	C374.801483,34.760857 377.531158,34.760857 380.624390,34.760857 
	C380.624390,49.455788 380.624390,64.005074 380.624390,79.545952 
	C377.621948,78.906921 374.782227,78.202728 371.902771,77.753830 
	C371.096313,77.628105 370.117554,78.145195 369.311279,78.552422 
	C361.091309,82.704216 351.708923,79.327400 348.073181,70.875031 
	C344.307709,62.121044 348.554504,50.798225 356.812042,48.314034 
	C359.429657,47.526558 362.372589,47.820408 365.555481,47.681965 
M357.204712,66.796478 
	C358.816559,70.633675 361.946136,73.074333 365.724213,71.577728 
	C368.277313,70.566383 370.887177,67.484261 371.700073,64.793236 
	C373.046295,60.336689 369.276093,56.200745 364.782166,55.947655 
	C359.556732,55.653370 356.772522,59.261505 357.204712,66.796478 
z"/>
<path fill="#171717" opacity="1.000000" stroke="none" 
	d="
M384.415405,86.197403 
	C386.258942,85.441116 388.066315,84.298561 389.436340,84.689362 
	C394.345856,86.089760 395.774231,85.463783 397.281921,79.899117 
	C392.622742,80.588539 391.570007,77.587471 390.592560,73.921700 
	C388.879761,67.498116 386.634094,61.218304 384.727722,54.843552 
	C384.198608,53.074291 384.078674,51.182663 383.711151,48.989910 
	C386.313385,48.989910 388.127411,49.058941 389.934113,48.973347 
	C392.493317,48.852104 393.724915,49.914734 394.380096,52.498409 
	C395.890442,58.454620 397.771790,64.316757 399.951904,71.748772 
	C401.786194,65.203445 403.322235,59.948559 404.726105,54.658588 
	C406.700409,47.219006 407.342407,46.830704 415.974182,48.908577 
	C414.406311,54.289768 412.838989,59.657558 411.278656,65.027374 
	C409.468994,71.255325 407.806763,77.530426 405.825195,83.703087 
	C403.050385,92.346481 393.510529,95.899559 385.499207,91.532967 
	C383.139526,90.246819 382.152405,88.839127 384.415405,86.197403 
z"/>
<path fill="#151515" opacity="1.000000" stroke="none" 
	d="
M297.271454,50.055336 
	C300.496796,49.152290 303.318756,48.268257 306.837341,47.165997 
	C306.837341,58.639168 306.837341,68.704742 306.837341,79.735764 
	C303.596649,79.445053 300.411530,79.159332 297.226410,78.873604 
	C289.735718,82.033897 281.986847,81.068863 276.755310,74.905853 
	C271.637024,68.876251 271.627777,58.762936 276.735138,52.776394 
	C281.574249,47.104198 290.382324,45.922066 297.271454,50.055336 
M283.277466,66.726913 
	C285.009491,70.479851 288.044891,72.925079 291.971924,71.560417 
	C294.362274,70.729759 297.124939,67.975998 297.653870,65.621788 
	C298.187897,63.245037 296.922821,59.343254 295.056030,57.866180 
	C293.224792,56.417213 289.356995,56.331692 286.898560,57.166370 
	C283.106567,58.453804 282.433258,62.156639 283.277466,66.726913 
z"/>
<path fill="#161616" opacity="1.000000" stroke="none" 
	d="
M213.583313,79.797806 
	C198.605255,83.053642 189.249619,71.083946 191.821976,60.248436 
	C193.509674,53.139320 199.871704,47.753113 207.594803,47.280380 
	C214.960083,46.829556 222.846176,51.177311 224.527298,57.861824 
	C226.695175,66.481949 226.302673,74.879204 213.583313,79.797806 
M215.564972,67.507561 
	C217.143936,63.897057 216.824402,60.240406 213.629364,58.091770 
	C211.597839,56.725578 207.845184,55.835644 205.985306,56.829636 
	C203.709854,58.045750 201.828506,61.270218 201.186462,63.962463 
	C200.307495,67.648232 203.004974,69.982140 206.335831,71.494057 
	C210.475342,73.373055 212.761444,70.794212 215.564972,67.507561 
z"/>
<path fill="#FAFAFA" opacity="1.000000" stroke="none" 
	d="
M93.444504,54.929352 
	C100.125664,63.173897 97.206863,80.527328 88.577568,85.886086 
	C77.967255,92.475044 65.012756,85.666611 63.097244,72.494507 
	C60.450634,54.295067 73.413216,32.926113 90.826042,26.783272 
	C104.303101,22.028879 114.532730,28.159164 116.251556,42.340618 
	C117.786522,55.005131 112.866982,65.538315 104.099472,76.244576 
	C105.972435,63.636013 103.882507,53.216526 97.963028,42.823593 
	C91.093834,47.087063 84.546974,51.150475 78.069183,55.171009 
	C80.655281,62.134075 81.275108,62.360485 87.149223,58.775166 
	C89.135551,57.562794 91.102211,56.318184 93.444504,54.929352 
z"/>
<path fill="#F8F8F8" opacity="1.000000" stroke="none" 
	d="
M58.691795,48.811470 
	C56.920429,57.506008 55.299709,65.845192 53.726490,73.939957 
	C46.289822,64.738525 41.329338,53.687717 43.598690,40.605236 
	C46.073887,26.336092 58.200089,21.333023 71.635147,28.083374 
	C67.385361,34.851280 63.113899,41.653698 58.691795,48.811470 
z"/>
<path fill="#F6F6F6" opacity="1.000000" stroke="none" 
	d="
M240.305115,43.203495 
	C243.087616,43.205326 245.417526,43.099209 247.733948,43.230827 
	C255.201248,43.655106 260.228333,48.481819 260.811981,55.673878 
	C261.418701,63.150234 257.111664,69.038162 249.792099,70.499741 
	C246.295670,71.197906 242.741241,71.605621 238.066681,72.320114 
	C238.066681,67.608940 238.066711,63.572388 238.066666,59.535831 
	C238.066605,55.220303 237.943954,50.898972 238.147873,46.593105 
	C238.202530,45.439304 239.253036,44.332672 240.305115,43.203495 
z"/>
<path fill="#F7F7F7" opacity="1.000000" stroke="none" 
	d="
M332.748169,69.718948 
	C329.582306,72.376732 326.116608,73.091843 323.471161,70.539780 
	C321.593567,68.728462 320.242340,65.569473 320.105591,62.936718 
	C319.879761,58.589733 323.728058,55.644428 327.963593,55.947742 
	C332.336792,56.260918 335.406982,59.838657 334.905884,64.479034 
	C334.721588,66.185440 333.685150,67.799828 332.748169,69.718948 
z"/>
<path fill="#F6F6F6" opacity="1.000000" stroke="none" 
	d="
M357.114746,66.398605 
	C356.772522,59.261505 359.556732,55.653370 364.782166,55.947655 
	C369.276093,56.200745 373.046295,60.336689 371.700073,64.793236 
	C370.887177,67.484261 368.277313,70.566383 365.724213,71.577728 
	C361.946136,73.074333 358.816559,70.633675 357.114746,66.398605 
z"/>
<path fill="#F6F6F6" opacity="1.000000" stroke="none" 
	d="
M283.178345,66.333588 
	C282.433258,62.156639 283.106567,58.453804 286.898560,57.166370 
	C289.356995,56.331692 293.224792,56.417213 295.056030,57.866180 
	C296.922821,59.343254 298.187897,63.245037 297.653870,65.621788 
	C297.124939,67.975998 294.362274,70.729759 291.971924,71.560417 
	C288.044891,72.925079 285.009491,70.479851 283.178345,66.333588 
z"/>
<path fill="#F6F6F6" opacity="1.000000" stroke="none" 
	d="
M215.331726,67.832916 
	C212.761444,70.794212 210.475342,73.373055 206.335831,71.494057 
	C203.004974,69.982140 200.307495,67.648232 201.186462,63.962463 
	C201.828506,61.270218 203.709854,58.045750 205.985306,56.829636 
	C207.845184,55.835644 211.597839,56.725578 213.629364,58.091770 
	C216.824402,60.240406 217.143936,63.897057 215.331726,67.832916 
z"/>
</svg>