<svg version="1.1" id="Layer_1" xmlns="http://www.w3.org/2000/svg" xmlns:xlink="http://www.w3.org/1999/xlink" x="0px" y="0px"
	 width="100%" viewBox="0 0 1920 811" enable-background="new 0 0 1920 811" xml:space="preserve">
<path fill="#FFFFFF" opacity="1.000000" stroke="none" 
	d="
M1921.000000,2.000000 
	C1921.000000,271.969330 1921.000000,541.938660 1921.000000,811.953979 
	C1281.103394,811.953979 641.206848,811.953979 1.000000,811.953979 
	C1.000000,542.300659 1.000000,272.601257 1.241439,2.376762 
	C1.655252,1.567809 1.827626,1.283905 2.000000,1.000000 
	C641.032715,1.000000 1280.065430,1.000000 1919.653564,1.223468 
	C1920.395996,1.740862 1920.659668,1.925217 1921.000000,2.000000 
M196.881027,486.627167 
	C207.722412,500.260193 219.963669,512.499878 233.990555,522.824646 
	C284.720947,560.165771 341.566620,573.306091 403.235657,562.564087 
	C465.887207,551.650940 510.130127,516.175720 534.760010,457.225891 
	C549.558472,421.806915 553.450439,384.550507 551.842163,346.523987 
	C551.823669,346.085480 551.436951,345.662506 551.286316,345.360931 
	C488.253418,345.360931 425.364685,345.360931 362.531799,345.360931 
	C362.531799,362.670380 362.531799,379.567657 362.531799,396.909363 
	C407.857391,396.909363 452.793579,396.909363 497.968323,396.909363 
	C497.872162,398.335693 497.942505,399.328674 497.722870,400.252777 
	C491.646484,425.818695 480.839661,449.077209 462.861908,468.455688 
	C430.459198,503.383057 389.899017,516.316833 343.342010,510.149292 
	C260.699799,499.201477 202.127350,424.922241 211.930939,342.931458 
	C219.088470,283.070618 251.373215,240.584091 307.010956,217.854385 
	C351.287933,199.765869 395.425598,202.202072 436.803101,227.975754 
	C446.161896,233.805252 454.307281,241.582703 462.023041,247.682297 
	C474.483063,235.923599 487.180786,223.940598 499.811768,212.020584 
	C488.512207,197.231262 463.447327,179.311646 441.360565,170.074203 
	C403.831024,154.378052 364.895752,151.544296 325.140167,158.117996 
	C280.419220,165.512711 241.539352,184.879837 209.771255,217.372238 
	C178.457687,249.399780 160.175415,288.003235 154.868973,332.510742 
	C148.108032,389.217804 161.525970,440.580841 196.881027,486.627167 
M1291.000732,302.460602 
	C1278.613892,303.672180 1265.924438,303.563110 1253.891235,306.318726 
	C1194.484985,319.922852 1152.963867,370.979004 1152.219727,430.214081 
	C1151.517456,486.132385 1188.650757,539.350159 1241.737793,558.326904 
	C1259.676270,564.739197 1278.132935,568.556091 1297.133911,564.895569 
	C1317.126465,561.044006 1333.678589,550.095520 1349.132812,537.354858 
	C1350.709717,536.054871 1352.370361,534.856018 1354.200928,533.449707 
	C1361.084106,559.750854 1353.679810,591.118103 1335.928833,613.057434 
	C1322.453857,629.712158 1305.415405,639.232483 1283.682861,638.728516 
	C1253.041992,638.018005 1227.202515,619.518921 1216.066040,590.845581 
	C1215.434448,589.219360 1214.749756,587.613647 1214.014404,585.813843 
	C1196.929810,592.893066 1180.413086,599.736938 1163.696289,606.663696 
	C1164.549683,608.525635 1165.064575,609.735901 1165.649048,610.911621 
	C1180.927856,641.652771 1204.157104,664.122009 1235.714233,677.735229 
	C1289.704956,701.026062 1341.447388,681.965454 1374.603516,647.025452 
	C1396.199097,624.267944 1405.306030,596.551941 1405.268311,565.420532 
	C1405.166382,481.440796 1405.237183,397.460815 1405.228516,313.480927 
	C1405.228271,311.856842 1405.094238,310.232788 1405.009888,308.315735 
	C1387.781372,308.315735 1370.886230,308.315735 1353.320068,308.315735 
	C1353.320068,315.855347 1353.320068,323.197845 1353.320068,331.553467 
	C1334.639771,316.330444 1315.342896,304.948212 1291.000732,302.460602 
M1647.844727,302.439453 
	C1625.275024,303.718079 1604.162109,309.847809 1585.311279,322.446228 
	C1548.575439,346.997467 1529.210083,381.970306 1526.366821,425.657166 
	C1523.808350,464.967896 1535.950195,499.686462 1563.454956,528.288330 
	C1612.675903,579.472351 1689.039062,573.164429 1731.267944,544.532532 
	C1745.506958,534.878235 1757.098999,522.693542 1766.068481,507.532867 
	C1751.148560,497.098053 1736.492554,486.847870 1721.835205,476.596741 
	C1703.072754,506.909332 1676.630371,520.709473 1641.789429,515.873291 
	C1616.185547,512.319275 1599.392334,496.754242 1588.904541,473.085693 
	C1649.087402,448.817261 1708.932983,424.684784 1768.683228,400.590820 
	C1759.361450,351.183441 1720.485107,299.937378 1647.844727,302.439453 
M577.491272,430.575745 
	C578.725098,441.140381 578.955078,451.939148 581.355286,462.231781 
	C597.173645,530.064209 664.606384,575.786804 731.806335,564.703613 
	C813.687866,551.199036 862.950867,466.066986 833.914856,388.248444 
	C811.511841,328.206696 752.147461,293.900604 688.444092,304.182373 
	C625.149902,314.398041 579.248169,366.308044 577.491272,430.575745 
M865.253845,417.882477 
	C862.802673,446.048798 868.177002,472.538483 882.155457,497.213959 
	C911.265503,548.600525 970.205811,575.722290 1025.902344,563.324402 
	C1094.981323,547.947754 1139.225708,481.776245 1127.167847,411.872589 
	C1114.483398,338.337463 1045.665649,290.831512 972.700989,304.669495 
	C918.924011,314.868439 872.420410,357.439331 865.253845,417.882477 
M1499.054443,487.500000 
	C1499.054443,381.619415 1499.054443,275.738831 1499.054443,169.672424 
	C1480.203979,169.672424 1461.963135,169.672424 1443.573242,169.672424 
	C1443.573242,298.550232 1443.573242,427.176849 1443.573242,555.741333 
	C1462.206665,555.741333 1480.442871,555.741333 1499.054443,555.741333 
	C1499.054443,533.083862 1499.054443,510.791931 1499.054443,487.500000 
z"/>
<path fill="#D5D5D5" opacity="1.000000" stroke="none" 
	d="
M1.500000,1.000000 
	C1.827626,1.283905 1.655252,1.567809 1.241439,1.925857 
	C1.000000,1.666667 1.000000,1.333333 1.500000,1.000000 
z"/>
<path fill="#EAEAEA" opacity="1.000000" stroke="none" 
	d="
M1921.000000,1.500000 
	C1920.659668,1.925217 1920.395996,1.740862 1920.104492,1.223468 
	C1920.333374,1.000000 1920.666626,1.000000 1921.000000,1.500000 
z"/>
<path fill="#4387F5" opacity="1.000000" stroke="none" 
	d="
M196.663483,486.344421 
	C161.525970,440.580841 148.108032,389.217804 154.868973,332.510742 
	C160.175415,288.003235 178.457687,249.399780 209.771255,217.372238 
	C241.539352,184.879837 280.419220,165.512711 325.140167,158.117996 
	C364.895752,151.544296 403.831024,154.378052 441.360565,170.074203 
	C463.447327,179.311646 488.512207,197.231262 499.811768,212.020584 
	C487.180786,223.940598 474.483063,235.923599 462.023041,247.682297 
	C454.307281,241.582703 446.161896,233.805252 436.803101,227.975754 
	C395.425598,202.202072 351.287933,199.765869 307.010956,217.854385 
	C251.373215,240.584091 219.088470,283.070618 211.930939,342.931458 
	C202.127350,424.922241 260.699799,499.201477 343.342010,510.149292 
	C389.899017,516.316833 430.459198,503.383057 462.861908,468.455688 
	C480.839661,449.077209 491.646484,425.818695 497.722870,400.252777 
	C497.942505,399.328674 497.872162,398.335693 497.968323,396.909363 
	C452.793579,396.909363 407.857391,396.909363 362.531799,396.909363 
	C362.531799,379.567657 362.531799,362.670380 362.531799,345.360931 
	C425.364685,345.360931 488.253418,345.360931 551.286316,345.360931 
	C551.436951,345.662506 551.823669,346.085480 551.842163,346.523987 
	C553.450439,384.550507 549.558472,421.806915 534.760010,457.225891 
	C510.130127,516.175720 465.887207,551.650940 403.235657,562.564087 
	C341.566620,573.306091 284.720947,560.165771 233.990555,522.824646 
	C219.963669,512.499878 207.722412,500.260193 196.663483,486.344421 
z"/>
<path fill="#4387F5" opacity="1.000000" stroke="none" 
	d="
M1291.446289,302.536255 
	C1315.342896,304.948212 1334.639771,316.330444 1353.320068,331.553467 
	C1353.320068,323.197845 1353.320068,315.855347 1353.320068,308.315735 
	C1370.886230,308.315735 1387.781372,308.315735 1405.009888,308.315735 
	C1405.094238,310.232788 1405.228271,311.856842 1405.228516,313.480927 
	C1405.237183,397.460815 1405.166382,481.440796 1405.268311,565.420532 
	C1405.306030,596.551941 1396.199097,624.267944 1374.603516,647.025452 
	C1341.447388,681.965454 1289.704956,701.026062 1235.714233,677.735229 
	C1204.157104,664.122009 1180.927856,641.652771 1165.649048,610.911621 
	C1165.064575,609.735901 1164.549683,608.525635 1163.696289,606.663696 
	C1180.413086,599.736938 1196.929810,592.893066 1214.014404,585.813843 
	C1214.749756,587.613647 1215.434448,589.219360 1216.066040,590.845581 
	C1227.202515,619.518921 1253.041992,638.018005 1283.682861,638.728516 
	C1305.415405,639.232483 1322.453857,629.712158 1335.928833,613.057434 
	C1353.679810,591.118103 1361.084106,559.750854 1354.200928,533.449707 
	C1352.370361,534.856018 1350.709717,536.054871 1349.132812,537.354858 
	C1333.678589,550.095520 1317.126465,561.044006 1297.133911,564.895569 
	C1278.132935,568.556091 1259.676270,564.739197 1241.737793,558.326904 
	C1188.650757,539.350159 1151.517456,486.132385 1152.219727,430.214081 
	C1152.963867,370.979004 1194.484985,319.922852 1253.891235,306.318726 
	C1265.924438,303.563110 1278.613892,303.672180 1291.446289,302.536255 
M1351.856812,467.251190 
	C1357.453613,449.404266 1358.251343,431.264404 1354.800781,412.959259 
	C1351.611328,396.039886 1344.596680,381.048798 1331.993164,368.913544 
	C1307.025513,344.873444 1261.174072,346.090973 1235.786621,370.709656 
	C1210.529053,395.202209 1204.801392,425.517578 1212.819580,458.575653 
	C1222.627563,499.012054 1257.458496,522.218994 1298.494873,515.826355 
	C1326.161865,511.516449 1342.669678,493.692169 1351.856812,467.251190 
z"/>
<path fill="#EA4434" opacity="1.000000" stroke="none" 
	d="
M1648.312744,302.412323 
	C1720.485107,299.937378 1759.361450,351.183441 1768.683228,400.590820 
	C1708.932983,424.684784 1649.087402,448.817261 1588.904541,473.085693 
	C1599.392334,496.754242 1616.185547,512.319275 1641.789429,515.873291 
	C1676.630371,520.709473 1703.072754,506.909332 1721.835205,476.596741 
	C1736.492554,486.847870 1751.148560,497.098053 1766.068481,507.532867 
	C1757.098999,522.693542 1745.506958,534.878235 1731.267944,544.532532 
	C1689.039062,573.164429 1612.675903,579.472351 1563.454956,528.288330 
	C1535.950195,499.686462 1523.808350,464.967896 1526.366821,425.657166 
	C1529.210083,381.970306 1548.575439,346.997467 1585.311279,322.446228 
	C1604.162109,309.847809 1625.275024,303.718079 1648.312744,302.412323 
M1670.507324,395.012939 
	C1681.894775,390.418640 1693.282104,385.824371 1704.929077,381.125366 
	C1704.338623,379.932617 1704.032959,379.195251 1703.629150,378.516296 
	C1690.984741,357.255219 1671.458618,350.404907 1647.924072,351.871368 
	C1610.054565,354.231110 1578.379883,391.778656 1582.271118,430.587067 
	C1611.570068,418.765198 1640.676880,407.020813 1670.507324,395.012939 
z"/>
<path fill="#EA4434" opacity="1.000000" stroke="none" 
	d="
M577.495483,430.112244 
	C579.248169,366.308044 625.149902,314.398041 688.444092,304.182373 
	C752.147461,293.900604 811.511841,328.206696 833.914856,388.248444 
	C862.950867,466.066986 813.687866,551.199036 731.806335,564.703613 
	C664.606384,575.786804 597.173645,530.064209 581.355286,462.231781 
	C578.955078,451.939148 578.725098,441.140381 577.495483,430.112244 
M764.826477,374.686005 
	C727.107361,336.312988 665.541931,346.547333 643.212769,395.440308 
	C630.231628,423.864563 631.336731,452.599487 646.679138,479.979828 
	C673.377441,527.626221 742.099365,529.829956 772.255920,484.302460 
	C793.580139,452.109314 790.581299,405.068542 764.826477,374.686005 
z"/>
<path fill="#FABC07" opacity="1.000000" stroke="none" 
	d="
M865.313232,417.426392 
	C872.420410,357.439331 918.924011,314.868439 972.700989,304.669495 
	C1045.665649,290.831512 1114.483398,338.337463 1127.167847,411.872589 
	C1139.225708,481.776245 1094.981323,547.947754 1025.902344,563.324402 
	C970.205811,575.722290 911.265503,548.600525 882.155457,497.213959 
	C868.177002,472.538483 862.802673,446.048798 865.313232,417.426392 
M936.092712,384.658539 
	C918.913147,412.943939 916.916260,442.575226 930.029480,472.647766 
	C951.996033,523.023438 1018.583435,532.878723 1054.127441,491.284698 
	C1068.057373,474.983704 1073.593384,455.410065 1073.579102,434.340057 
	C1073.564209,412.347839 1067.344604,392.300110 1052.601074,375.418640 
	C1023.266113,341.829651 963.805664,342.894684 936.092712,384.658539 
z"/>
<path fill="#33A953" opacity="1.000000" stroke="none" 
	d="
M1499.054443,488.000000 
	C1499.054443,510.791931 1499.054443,533.083862 1499.054443,555.741333 
	C1480.442871,555.741333 1462.206665,555.741333 1443.573242,555.741333 
	C1443.573242,427.176849 1443.573242,298.550232 1443.573242,169.672424 
	C1461.963135,169.672424 1480.203979,169.672424 1499.054443,169.672424 
	C1499.054443,275.738831 1499.054443,381.619415 1499.054443,488.000000 
z"/>
<path fill="#FEFEFF" opacity="1.000000" stroke="none" 
	d="
M1351.722900,467.624329 
	C1342.669678,493.692169 1326.161865,511.516449 1298.494873,515.826355 
	C1257.458496,522.218994 1222.627563,499.012054 1212.819580,458.575653 
	C1204.801392,425.517578 1210.529053,395.202209 1235.786621,370.709656 
	C1261.174072,346.090973 1307.025513,344.873444 1331.993164,368.913544 
	C1344.596680,381.048798 1351.611328,396.039886 1354.800781,412.959259 
	C1358.251343,431.264404 1357.453613,449.404266 1351.722900,467.624329 
z"/>
<path fill="#FEFDFD" opacity="1.000000" stroke="none" 
	d="
M1670.145508,395.144684 
	C1640.676880,407.020813 1611.570068,418.765198 1582.271118,430.587067 
	C1578.379883,391.778656 1610.054565,354.231110 1647.924072,351.871368 
	C1671.458618,350.404907 1690.984741,357.255219 1703.629150,378.516296 
	C1704.032959,379.195251 1704.338623,379.932617 1704.929077,381.125366 
	C1693.282104,385.824371 1681.894775,390.418640 1670.145508,395.144684 
z"/>
<path fill="#FFFEFE" opacity="1.000000" stroke="none" 
	d="
M765.064148,374.950439 
	C790.581299,405.068542 793.580139,452.109314 772.255920,484.302460 
	C742.099365,529.829956 673.377441,527.626221 646.679138,479.979828 
	C631.336731,452.599487 630.231628,423.864563 643.212769,395.440308 
	C665.541931,346.547333 727.107361,336.312988 765.064148,374.950439 
z"/>
<path fill="#FFFFFE" opacity="1.000000" stroke="none" 
	d="
M936.287476,384.353088 
	C963.805664,342.894684 1023.266113,341.829651 1052.601074,375.418640 
	C1067.344604,392.300110 1073.564209,412.347839 1073.579102,434.340057 
	C1073.593384,455.410065 1068.057373,474.983704 1054.127441,491.284698 
	C1018.583435,532.878723 951.996033,523.023438 930.029480,472.647766 
	C916.916260,442.575226 918.913147,412.943939 936.287476,384.353088 
z"/>
</svg>