<svg version="1.1" id="Layer_1" xmlns="http://www.w3.org/2000/svg" xmlns:xlink="http://www.w3.org/1999/xlink" x="0px" y="0px"
	 width="100%" viewBox="0 0 1920 720" enable-background="new 0 0 1920 720" xml:space="preserve">
<path fill="#FFFFFF" opacity="1.000000" stroke="none" 
	d="
M1364.000000,721.000000 
	C909.333313,721.000000 455.166656,721.000000 1.000000,721.000000 
	C1.000000,481.000000 1.000000,241.000000 1.000000,1.000000 
	C641.000000,1.000000 1281.000000,1.000000 1921.000000,1.000000 
	C1921.000000,241.000000 1921.000000,481.000000 1921.000000,721.000000 
	C1735.500000,721.000000 1550.000000,721.000000 1364.000000,721.000000 
M585.990234,455.490417 
	C585.990234,459.902954 585.990234,464.315521 585.990234,468.729736 
	C598.194275,468.729736 609.496887,468.729736 621.502808,468.729736 
	C621.502808,414.190369 621.502808,359.840637 621.502808,305.490906 
	C621.920959,305.394165 622.339111,305.297394 622.757263,305.200623 
	C623.535217,306.919037 624.376831,308.611786 625.081970,310.359589 
	C645.830017,361.788574 666.605469,413.206604 687.208374,464.693695 
	C688.579224,468.119507 690.322449,469.159180 693.796265,468.991943 
	C699.282898,468.727783 704.813660,468.620941 710.283936,469.020325 
	C714.520691,469.329620 716.342041,467.646881 717.838135,463.841309 
	C738.127136,412.231293 758.571838,360.682495 778.994568,309.125122 
	C779.618286,307.550659 780.421082,306.047150 781.140381,304.510559 
	C781.524597,304.624573 781.908752,304.738617 782.292969,304.852631 
	C782.292969,359.402863 782.292969,413.953125 782.292969,468.678528 
	C794.917480,468.678528 807.008850,468.678528 819.335571,468.678528 
	C819.335571,396.745117 819.335571,325.056671 819.335571,253.077423 
	C804.106323,253.077423 789.278992,253.336594 774.469299,252.937454 
	C769.255371,252.796936 767.017578,254.558289 765.108154,259.304443 
	C745.279297,308.590820 725.190674,357.772705 705.166321,406.980438 
	C704.606384,408.356628 703.959900,409.697571 702.947998,411.963593 
	C701.617920,408.776306 700.755188,406.800323 699.962646,404.796600 
	C680.545837,355.708496 661.103333,306.630493 641.800842,257.497467 
	C640.513306,254.220169 639.013733,252.857880 635.351501,252.989639 
	C627.029968,253.289047 618.690186,253.078766 610.357788,253.077423 
	C602.410583,253.076157 594.463379,253.077148 585.990234,253.077148 
	C585.990234,320.602814 585.990234,387.548553 585.990234,455.490417 
M256.500000,181.160477 
	C210.903656,181.160477 165.307327,181.160477 119.479103,181.160477 
	C119.479103,238.445496 119.479103,295.151245 119.479103,351.966187 
	C176.521683,351.966187 233.234268,351.966187 289.826782,351.966187 
	C289.826782,294.950104 289.826782,238.243835 289.826782,181.160568 
	C278.774231,181.160568 268.137115,181.160568 256.500000,181.160477 
M419.500000,181.145432 
	C382.415527,181.145432 345.331055,181.145432 308.173462,181.145432 
	C308.173462,238.519897 308.173462,295.214996 308.173462,351.814087 
	C365.224121,351.814087 421.897919,351.814087 478.618073,351.814087 
	C478.618073,294.817932 478.618073,238.263077 478.618073,181.145554 
	C459.048004,181.145554 439.773987,181.145554 419.500000,181.145432 
M307.832550,507.500000 
	C307.832550,518.437866 307.832550,529.375732 307.832550,540.510620 
	C365.097717,540.510620 421.776306,540.510620 478.515656,540.510620 
	C478.515656,483.464233 478.515656,426.781097 478.515656,370.007690 
	C421.549194,370.007690 364.982239,370.007690 307.832397,370.007690 
	C307.832397,415.674347 307.832397,461.087158 307.832550,507.500000 
M206.500031,369.742401 
	C177.568542,369.742401 148.637054,369.742401 119.451477,369.742401 
	C119.451477,426.998230 119.451477,483.680237 119.451477,540.482666 
	C176.457214,540.482666 233.142014,540.482666 289.817810,540.482666 
	C289.817810,483.428497 289.817810,426.742615 289.817810,369.742188 
	C262.095917,369.742188 234.797974,369.742188 206.500031,369.742401 
M1685.338867,237.833389 
	C1671.773438,239.534744 1660.067505,244.965042 1651.026978,255.402893 
	C1642.385376,265.380127 1638.436890,277.226227 1638.109497,290.292755 
	C1637.914795,298.066010 1638.073730,305.848053 1638.073730,314.231384 
	C1629.190308,314.231384 1620.959106,314.231384 1612.551392,314.231384 
	C1612.551392,324.415863 1612.551392,333.980988 1612.551392,344.169006 
	C1621.084961,344.169006 1629.321045,344.169006 1638.103760,344.169006 
	C1638.103760,386.007812 1638.103760,427.225616 1638.103760,468.518188 
	C1650.718384,468.518188 1662.759888,468.518188 1675.378662,468.518188 
	C1675.378662,426.899261 1675.378662,385.681976 1675.378662,344.365570 
	C1693.540771,344.365570 1711.117920,344.365570 1729.154663,344.365570 
	C1729.154663,346.484344 1729.154785,348.281525 1729.154785,350.078705 
	C1729.154907,373.736938 1729.099121,397.395416 1729.200073,421.053223 
	C1729.221313,426.035706 1729.467407,431.069061 1730.216675,435.986542 
	C1732.203613,449.026398 1737.167603,460.567932 1749.619751,466.865662 
	C1766.302734,475.303101 1783.470459,473.751312 1800.562988,467.934570 
	C1801.529785,467.605499 1802.729004,466.103790 1802.746582,465.128510 
	C1802.912598,455.912994 1802.845215,446.693237 1802.845215,437.441864 
	C1798.126587,438.996185 1794.142456,440.776215 1789.969604,441.596039 
	C1777.099365,444.124725 1768.413574,437.713837 1766.788818,424.753296 
	C1766.354980,421.292297 1766.098633,417.785461 1766.088867,414.298706 
	C1766.027954,392.473816 1766.053101,370.648651 1766.076538,348.823608 
	C1766.078125,347.391602 1766.301758,345.959869 1766.467773,343.983826 
	C1778.737671,343.983826 1790.619995,343.983826 1802.556641,343.983826 
	C1802.556641,333.816345 1802.556641,324.236053 1802.556641,314.088318 
	C1790.365845,314.088318 1778.467285,314.088318 1765.958618,314.088318 
	C1765.958618,298.505157 1765.958618,283.480347 1765.958618,267.987518 
	C1754.918335,271.339081 1744.642944,274.681732 1734.226929,277.505463 
	C1730.310547,278.567169 1728.898438,280.145966 1729.044800,284.308563 
	C1729.388062,294.070312 1729.154541,303.852295 1729.154541,313.685791 
	C1710.824707,313.685791 1693.145142,313.685791 1675.633423,313.685791 
	C1675.633423,305.443909 1675.086792,297.596954 1675.744263,289.852234 
	C1677.234985,272.294342 1688.771851,264.436096 1706.007812,268.706207 
	C1708.998169,269.447021 1711.937866,270.392426 1715.525269,271.422638 
	C1715.525269,261.346527 1715.622803,251.892532 1715.392578,242.446457 
	C1715.366089,241.358795 1713.584961,239.477448 1712.496094,239.384445 
	C1703.755737,238.637909 1694.986084,238.232758 1685.338867,237.833389 
M1171.320068,339.828247 
	C1153.333984,367.200043 1151.462769,396.597412 1161.716309,426.845306 
	C1168.924194,448.108978 1184.527344,461.806549 1205.786499,468.494934 
	C1223.994751,474.223450 1242.597046,474.233734 1260.968506,469.038452 
	C1284.549072,462.370087 1300.804199,447.281403 1309.166870,424.309937 
	C1317.116089,402.474396 1317.153809,380.191864 1310.103516,358.109833 
	C1302.440308,334.108337 1285.915039,319.201843 1261.566650,313.069672 
	C1247.312134,309.479645 1232.872070,309.462433 1218.434326,311.955536 
	C1199.487671,315.227173 1183.580933,323.773438 1171.320068,339.828247 
M1461.202393,346.734100 
	C1448.223999,371.530640 1446.841431,397.475525 1454.957275,423.776794 
	C1461.846436,446.103333 1477.231079,460.823303 1499.427979,468.209351 
	C1512.928467,472.701660 1526.808105,473.238220 1540.884033,471.918823 
	C1571.583008,469.041229 1595.818115,449.784546 1604.932861,420.345398 
	C1610.837646,401.274109 1610.938110,381.858429 1605.868042,362.656982 
	C1598.944702,336.437103 1582.154175,319.705780 1555.694214,313.033020 
	C1543.435181,309.941528 1530.982422,309.570374 1518.495605,311.113220 
	C1494.235474,314.110718 1474.420654,324.463074 1461.202393,346.734100 
M1350.521973,438.160492 
	C1344.489136,435.150604 1338.456421,432.140717 1331.773071,428.806274 
	C1331.773071,439.358551 1331.944458,449.459015 1331.678955,459.548004 
	C1331.587402,463.026123 1332.714600,464.963562 1335.965088,465.649170 
	C1347.001953,467.977051 1357.960083,471.339569 1369.118408,472.273560 
	C1385.641602,473.656555 1401.554688,470.557983 1415.804810,461.028107 
	C1439.726440,445.030579 1442.759277,405.702728 1415.764160,388.594116 
	C1410.027588,384.958435 1403.832764,382.020477 1397.740967,378.977417 
	C1390.603271,375.411896 1383.189331,372.372711 1376.193237,368.558594 
	C1370.721191,365.575287 1368.705444,360.237213 1369.098755,354.131714 
	C1369.496216,347.958954 1372.991211,343.281677 1378.677490,342.048828 
	C1385.347168,340.602844 1392.641113,339.558594 1399.219604,340.765137 
	C1408.515503,342.470093 1417.403931,346.397491 1426.687866,349.447540 
	C1426.687866,339.851624 1426.780640,329.434235 1426.546143,319.024200 
	C1426.522339,317.965332 1424.693359,316.374207 1423.422852,316.013794 
	C1417.350830,314.291351 1411.256104,312.402374 1405.034912,311.499603 
	C1386.633911,308.829559 1368.766846,310.198822 1352.556763,320.499176 
	C1327.701660,336.292664 1323.935669,372.487579 1345.866455,390.854736 
	C1352.985840,396.817200 1362.131836,400.404449 1370.473633,404.847717 
	C1376.924683,408.283997 1383.781250,410.998016 1390.062378,414.703217 
	C1395.958862,418.181488 1398.781494,423.633484 1397.433350,430.801025 
	C1396.074219,438.025848 1390.938110,440.820526 1384.516602,442.196442 
	C1373.012817,444.661377 1362.023682,442.472961 1350.521973,438.160492 
M1021.328369,437.017914 
	C1018.829651,437.933319 1016.371277,438.984100 1013.825989,439.743195 
	C988.184814,447.390167 964.072510,435.905701 956.527954,412.124451 
	C952.178284,398.413788 952.375916,384.477661 957.100098,370.867615 
	C963.456116,352.556488 979.543701,341.273529 998.944702,340.859497 
	C1011.036072,340.601410 1021.834656,344.436798 1031.905884,350.796387 
	C1033.328979,351.694946 1034.818237,352.488708 1036.891357,353.685822 
	C1036.891357,342.658691 1036.706421,332.668488 1036.990723,322.691681 
	C1037.091187,319.172882 1035.750122,317.230682 1032.690308,316.523071 
	C1023.649597,314.432312 1014.645325,311.527679 1005.475586,310.768768 
	C972.633484,308.050842 941.453369,321.011719 926.354797,349.512329 
	C914.456482,371.972107 912.025391,395.882996 919.090088,420.240753 
	C926.765320,446.703888 944.442566,463.568665 971.302429,470.098785 
	C989.515259,474.526611 1007.672913,473.398071 1025.406738,467.237793 
	C1036.936035,463.232819 1036.894043,463.111206 1036.894165,450.823090 
	C1036.894287,444.827454 1036.914429,438.831696 1036.876099,432.836304 
	C1036.868286,431.625519 1036.638428,430.416168 1036.489258,429.000458 
	C1031.378662,431.729218 1026.704956,434.224670 1021.328369,437.017914 
M1063.913696,458.472290 
	C1063.913696,461.876343 1063.913696,465.280426 1063.913696,468.547058 
	C1076.600830,468.547058 1088.336792,468.547058 1100.567139,468.547058 
	C1100.567139,466.210175 1100.561035,464.243134 1100.568115,462.276184 
	C1100.661255,435.953156 1100.309204,409.616089 1101.133423,383.315918 
	C1101.369751,375.778168 1103.944702,367.823425 1107.313110,360.977905 
	C1113.963623,347.461945 1126.578369,342.306274 1141.269165,345.806549 
	C1145.395264,346.789703 1149.352417,348.482635 1153.985962,350.052917 
	C1153.985962,339.071625 1153.786743,328.449371 1154.092651,317.841675 
	C1154.201416,314.070465 1152.597046,313.050354 1149.416382,312.340607 
	C1130.699829,308.163849 1113.626709,315.810760 1104.207031,332.760040 
	C1103.308350,334.376923 1102.433350,336.006836 1101.547485,337.630707 
	C1101.154541,337.502838 1100.761719,337.375000 1100.368896,337.247131 
	C1100.368896,329.653107 1100.368896,322.059052 1100.368896,314.587524 
	C1087.941772,314.587524 1076.064331,314.587524 1063.904053,314.587524 
	C1063.904053,362.531860 1063.904053,410.005402 1063.913696,458.472290 
M854.055725,460.438568 
	C854.055725,463.179474 854.055725,465.920349 854.055725,468.540375 
	C866.815308,468.540375 878.713379,468.540375 890.656372,468.540375 
	C890.656372,416.979431 890.656372,365.802979 890.656372,314.425690 
	C878.378418,314.425690 866.481201,314.425690 854.055786,314.425690 
	C854.055786,362.975159 854.055786,411.213898 854.055725,460.438568 
M872.535339,290.783875 
	C875.468933,290.265442 878.522278,290.102325 881.313843,289.162201 
	C889.839478,286.290924 894.987244,279.094879 895.166138,270.352112 
	C895.355164,261.106689 890.300903,253.161041 881.876953,249.990219 
	C872.854980,246.594269 864.417847,247.735474 857.267578,254.446976 
	C850.969604,260.358582 849.168152,267.871307 851.747192,275.968750 
	C854.768311,285.454773 862.039978,289.866394 872.535339,290.783875 
z"/>
<path fill="#6F7273" opacity="1.000000" stroke="none" 
	d="
M585.990234,454.992340 
	C585.990234,387.548553 585.990234,320.602814 585.990234,253.077148 
	C594.463379,253.077148 602.410583,253.076157 610.357788,253.077423 
	C618.690186,253.078766 627.029968,253.289047 635.351501,252.989639 
	C639.013733,252.857880 640.513306,254.220169 641.800842,257.497467 
	C661.103333,306.630493 680.545837,355.708496 699.962646,404.796600 
	C700.755188,406.800323 701.617920,408.776306 702.947998,411.963593 
	C703.959900,409.697571 704.606384,408.356628 705.166321,406.980438 
	C725.190674,357.772705 745.279297,308.590820 765.108154,259.304443 
	C767.017578,254.558289 769.255371,252.796936 774.469299,252.937454 
	C789.278992,253.336594 804.106323,253.077423 819.335571,253.077423 
	C819.335571,325.056671 819.335571,396.745117 819.335571,468.678528 
	C807.008850,468.678528 794.917480,468.678528 782.292969,468.678528 
	C782.292969,413.953125 782.292969,359.402863 782.292969,304.852631 
	C781.908752,304.738617 781.524597,304.624573 781.140381,304.510559 
	C780.421082,306.047150 779.618286,307.550659 778.994568,309.125122 
	C758.571838,360.682495 738.127136,412.231293 717.838135,463.841309 
	C716.342041,467.646881 714.520691,469.329620 710.283936,469.020325 
	C704.813660,468.620941 699.282898,468.727783 693.796265,468.991943 
	C690.322449,469.159180 688.579224,468.119507 687.208374,464.693695 
	C666.605469,413.206604 645.830017,361.788574 625.081970,310.359589 
	C624.376831,308.611786 623.535217,306.919037 622.757263,305.200623 
	C622.339111,305.297394 621.920959,305.394165 621.502808,305.490906 
	C621.502808,359.840637 621.502808,414.190369 621.502808,468.729736 
	C609.496887,468.729736 598.194275,468.729736 585.990234,468.729736 
	C585.990234,464.315521 585.990234,459.902954 585.990234,454.992340 
z"/>
<path fill="#F05E33" opacity="1.000000" stroke="none" 
	d="
M257.000000,181.160522 
	C268.137115,181.160568 278.774231,181.160568 289.826782,181.160568 
	C289.826782,238.243835 289.826782,294.950104 289.826782,351.966187 
	C233.234268,351.966187 176.521683,351.966187 119.479103,351.966187 
	C119.479103,295.151245 119.479103,238.445496 119.479103,181.160477 
	C165.307327,181.160477 210.903656,181.160477 257.000000,181.160522 
z"/>
<path fill="#79C144" opacity="1.000000" stroke="none" 
	d="
M420.000000,181.145493 
	C439.773987,181.145554 459.048004,181.145554 478.618073,181.145554 
	C478.618073,238.263077 478.618073,294.817932 478.618073,351.814087 
	C421.897919,351.814087 365.224121,351.814087 308.173462,351.814087 
	C308.173462,295.214996 308.173462,238.519897 308.173462,181.145432 
	C345.331055,181.145432 382.415527,181.145432 420.000000,181.145493 
z"/>
<path fill="#FDB52C" opacity="1.000000" stroke="none" 
	d="
M307.832458,507.000000 
	C307.832397,461.087158 307.832397,415.674347 307.832397,370.007690 
	C364.982239,370.007690 421.549194,370.007690 478.515656,370.007690 
	C478.515656,426.781097 478.515656,483.464233 478.515656,540.510620 
	C421.776306,540.510620 365.097717,540.510620 307.832550,540.510620 
	C307.832550,529.375732 307.832550,518.437866 307.832458,507.000000 
z"/>
<path fill="#289FDB" opacity="1.000000" stroke="none" 
	d="
M207.000031,369.742310 
	C234.797974,369.742188 262.095917,369.742188 289.817810,369.742188 
	C289.817810,426.742615 289.817810,483.428497 289.817810,540.482666 
	C233.142014,540.482666 176.457214,540.482666 119.451477,540.482666 
	C119.451477,483.680237 119.451477,426.998230 119.451477,369.742401 
	C148.637054,369.742401 177.568542,369.742401 207.000031,369.742310 
z"/>
<path fill="#6E7273" opacity="1.000000" stroke="none" 
	d="
M1685.782227,237.778290 
	C1694.986084,238.232758 1703.755737,238.637909 1712.496094,239.384445 
	C1713.584961,239.477448 1715.366089,241.358795 1715.392578,242.446457 
	C1715.622803,251.892532 1715.525269,261.346527 1715.525269,271.422638 
	C1711.937866,270.392426 1708.998169,269.447021 1706.007812,268.706207 
	C1688.771851,264.436096 1677.234985,272.294342 1675.744263,289.852234 
	C1675.086792,297.596954 1675.633423,305.443909 1675.633423,313.685791 
	C1693.145142,313.685791 1710.824707,313.685791 1729.154541,313.685791 
	C1729.154541,303.852295 1729.388062,294.070312 1729.044800,284.308563 
	C1728.898438,280.145966 1730.310547,278.567169 1734.226929,277.505463 
	C1744.642944,274.681732 1754.918335,271.339081 1765.958618,267.987518 
	C1765.958618,283.480347 1765.958618,298.505157 1765.958618,314.088318 
	C1778.467285,314.088318 1790.365845,314.088318 1802.556641,314.088318 
	C1802.556641,324.236053 1802.556641,333.816345 1802.556641,343.983826 
	C1790.619995,343.983826 1778.737671,343.983826 1766.467773,343.983826 
	C1766.301758,345.959869 1766.078125,347.391602 1766.076538,348.823608 
	C1766.053101,370.648651 1766.027954,392.473816 1766.088867,414.298706 
	C1766.098633,417.785461 1766.354980,421.292297 1766.788818,424.753296 
	C1768.413574,437.713837 1777.099365,444.124725 1789.969604,441.596039 
	C1794.142456,440.776215 1798.126587,438.996185 1802.845215,437.441864 
	C1802.845215,446.693237 1802.912598,455.912994 1802.746582,465.128510 
	C1802.729004,466.103790 1801.529785,467.605499 1800.562988,467.934570 
	C1783.470459,473.751312 1766.302734,475.303101 1749.619751,466.865662 
	C1737.167603,460.567932 1732.203613,449.026398 1730.216675,435.986542 
	C1729.467407,431.069061 1729.221313,426.035706 1729.200073,421.053223 
	C1729.099121,397.395416 1729.154907,373.736938 1729.154785,350.078705 
	C1729.154785,348.281525 1729.154663,346.484344 1729.154663,344.365570 
	C1711.117920,344.365570 1693.540771,344.365570 1675.378662,344.365570 
	C1675.378662,385.681976 1675.378662,426.899261 1675.378662,468.518188 
	C1662.759888,468.518188 1650.718384,468.518188 1638.103760,468.518188 
	C1638.103760,427.225616 1638.103760,386.007812 1638.103760,344.169006 
	C1629.321045,344.169006 1621.084961,344.169006 1612.551392,344.169006 
	C1612.551392,333.980988 1612.551392,324.415863 1612.551392,314.231384 
	C1620.959106,314.231384 1629.190308,314.231384 1638.073730,314.231384 
	C1638.073730,305.848053 1637.914795,298.066010 1638.109497,290.292755 
	C1638.436890,277.226227 1642.385376,265.380127 1651.026978,255.402893 
	C1660.067505,244.965042 1671.773438,239.534744 1685.782227,237.778290 
z"/>
<path fill="#6E7273" opacity="1.000000" stroke="none" 
	d="
M1171.537598,339.542908 
	C1183.580933,323.773438 1199.487671,315.227173 1218.434326,311.955536 
	C1232.872070,309.462433 1247.312134,309.479645 1261.566650,313.069672 
	C1285.915039,319.201843 1302.440308,334.108337 1310.103516,358.109833 
	C1317.153809,380.191864 1317.116089,402.474396 1309.166870,424.309937 
	C1300.804199,447.281403 1284.549072,462.370087 1260.968506,469.038452 
	C1242.597046,474.233734 1223.994751,474.223450 1205.786499,468.494934 
	C1184.527344,461.806549 1168.924194,448.108978 1161.716309,426.845306 
	C1151.462769,396.597412 1153.333984,367.200043 1171.537598,339.542908 
M1225.657104,341.928925 
	C1212.177612,344.943390 1203.175537,353.272064 1198.401001,365.938751 
	C1192.451538,381.722595 1192.218628,397.926086 1197.156006,413.981659 
	C1202.000244,429.734497 1212.683350,439.443817 1229.256104,441.545685 
	C1251.173096,444.325317 1268.969116,436.046967 1274.701050,411.325043 
	C1277.589844,398.865631 1277.769897,386.247314 1275.101685,373.658081 
	C1269.957764,349.386169 1250.865967,336.861359 1225.657104,341.928925 
z"/>
<path fill="#6E7273" opacity="1.000000" stroke="none" 
	d="
M1461.399780,346.424316 
	C1474.420654,324.463074 1494.235474,314.110718 1518.495605,311.113220 
	C1530.982422,309.570374 1543.435181,309.941528 1555.694214,313.033020 
	C1582.154175,319.705780 1598.944702,336.437103 1605.868042,362.656982 
	C1610.938110,381.858429 1610.837646,401.274109 1604.932861,420.345398 
	C1595.818115,449.784546 1571.583008,469.041229 1540.884033,471.918823 
	C1526.808105,473.238220 1512.928467,472.701660 1499.427979,468.209351 
	C1477.231079,460.823303 1461.846436,446.103333 1454.957275,423.776794 
	C1446.841431,397.475525 1448.223999,371.530640 1461.399780,346.424316 
M1571.143555,390.518524 
	C1570.759277,385.713928 1570.650146,380.868408 1569.943237,376.111755 
	C1566.880737,355.504974 1552.849976,341.950531 1533.801147,340.959747 
	C1511.647461,339.807526 1496.503296,350.617615 1490.803101,371.678345 
	C1487.796997,382.784515 1487.353760,394.061218 1489.349731,405.334839 
	C1492.332642,422.181915 1500.144653,435.362457 1517.771362,440.404175 
	C1543.120483,447.654785 1563.774292,435.504761 1569.273682,409.825623 
	C1570.551880,403.857147 1570.554932,397.615631 1571.143555,390.518524 
z"/>
<path fill="#6F7373" opacity="1.000000" stroke="none" 
	d="
M1350.885010,438.300415 
	C1362.023682,442.472961 1373.012817,444.661377 1384.516602,442.196442 
	C1390.938110,440.820526 1396.074219,438.025848 1397.433350,430.801025 
	C1398.781494,423.633484 1395.958862,418.181488 1390.062378,414.703217 
	C1383.781250,410.998016 1376.924683,408.283997 1370.473633,404.847717 
	C1362.131836,400.404449 1352.985840,396.817200 1345.866455,390.854736 
	C1323.935669,372.487579 1327.701660,336.292664 1352.556763,320.499176 
	C1368.766846,310.198822 1386.633911,308.829559 1405.034912,311.499603 
	C1411.256104,312.402374 1417.350830,314.291351 1423.422852,316.013794 
	C1424.693359,316.374207 1426.522339,317.965332 1426.546143,319.024200 
	C1426.780640,329.434235 1426.687866,339.851624 1426.687866,349.447540 
	C1417.403931,346.397491 1408.515503,342.470093 1399.219604,340.765137 
	C1392.641113,339.558594 1385.347168,340.602844 1378.677490,342.048828 
	C1372.991211,343.281677 1369.496216,347.958954 1369.098755,354.131714 
	C1368.705444,360.237213 1370.721191,365.575287 1376.193237,368.558594 
	C1383.189331,372.372711 1390.603271,375.411896 1397.740967,378.977417 
	C1403.832764,382.020477 1410.027588,384.958435 1415.764160,388.594116 
	C1442.759277,405.702728 1439.726440,445.030579 1415.804810,461.028107 
	C1401.554688,470.557983 1385.641602,473.656555 1369.118408,472.273560 
	C1357.960083,471.339569 1347.001953,467.977051 1335.965088,465.649170 
	C1332.714600,464.963562 1331.587402,463.026123 1331.678955,459.548004 
	C1331.944458,449.459015 1331.773071,439.358551 1331.773071,428.806274 
	C1338.456421,432.140717 1344.489136,435.150604 1350.885010,438.300415 
z"/>
<path fill="#6F7373" opacity="1.000000" stroke="none" 
	d="
M1021.679810,436.869019 
	C1026.704956,434.224670 1031.378662,431.729218 1036.489258,429.000458 
	C1036.638428,430.416168 1036.868286,431.625519 1036.876099,432.836304 
	C1036.914429,438.831696 1036.894287,444.827454 1036.894165,450.823090 
	C1036.894043,463.111206 1036.936035,463.232819 1025.406738,467.237793 
	C1007.672913,473.398071 989.515259,474.526611 971.302429,470.098785 
	C944.442566,463.568665 926.765320,446.703888 919.090088,420.240753 
	C912.025391,395.882996 914.456482,371.972107 926.354797,349.512329 
	C941.453369,321.011719 972.633484,308.050842 1005.475586,310.768768 
	C1014.645325,311.527679 1023.649597,314.432312 1032.690308,316.523071 
	C1035.750122,317.230682 1037.091187,319.172882 1036.990723,322.691681 
	C1036.706421,332.668488 1036.891357,342.658691 1036.891357,353.685822 
	C1034.818237,352.488708 1033.328979,351.694946 1031.905884,350.796387 
	C1021.834656,344.436798 1011.036072,340.601410 998.944702,340.859497 
	C979.543701,341.273529 963.456116,352.556488 957.100098,370.867615 
	C952.375916,384.477661 952.178284,398.413788 956.527954,412.124451 
	C964.072510,435.905701 988.184814,447.390167 1013.825989,439.743195 
	C1016.371277,438.984100 1018.829651,437.933319 1021.679810,436.869019 
z"/>
<path fill="#6E7273" opacity="1.000000" stroke="none" 
	d="
M1063.908936,457.975616 
	C1063.904053,410.005402 1063.904053,362.531860 1063.904053,314.587524 
	C1076.064331,314.587524 1087.941772,314.587524 1100.368896,314.587524 
	C1100.368896,322.059052 1100.368896,329.653107 1100.368896,337.247131 
	C1100.761719,337.375000 1101.154541,337.502838 1101.547485,337.630707 
	C1102.433350,336.006836 1103.308350,334.376923 1104.207031,332.760040 
	C1113.626709,315.810760 1130.699829,308.163849 1149.416382,312.340607 
	C1152.597046,313.050354 1154.201416,314.070465 1154.092651,317.841675 
	C1153.786743,328.449371 1153.985962,339.071625 1153.985962,350.052917 
	C1149.352417,348.482635 1145.395264,346.789703 1141.269165,345.806549 
	C1126.578369,342.306274 1113.963623,347.461945 1107.313110,360.977905 
	C1103.944702,367.823425 1101.369751,375.778168 1101.133423,383.315918 
	C1100.309204,409.616089 1100.661255,435.953156 1100.568115,462.276184 
	C1100.561035,464.243134 1100.567139,466.210175 1100.567139,468.547058 
	C1088.336792,468.547058 1076.600830,468.547058 1063.913696,468.547058 
	C1063.913696,465.280426 1063.913696,461.876343 1063.908936,457.975616 
z"/>
<path fill="#6F7374" opacity="1.000000" stroke="none" 
	d="
M854.055786,459.945618 
	C854.055786,411.213898 854.055786,362.975159 854.055786,314.425690 
	C866.481201,314.425690 878.378418,314.425690 890.656372,314.425690 
	C890.656372,365.802979 890.656372,416.979431 890.656372,468.540375 
	C878.713379,468.540375 866.815308,468.540375 854.055725,468.540375 
	C854.055725,465.920349 854.055725,463.179474 854.055786,459.945618 
z"/>
<path fill="#6F7374" opacity="1.000000" stroke="none" 
	d="
M872.106934,290.779846 
	C862.039978,289.866394 854.768311,285.454773 851.747192,275.968750 
	C849.168152,267.871307 850.969604,260.358582 857.267578,254.446976 
	C864.417847,247.735474 872.854980,246.594269 881.876953,249.990219 
	C890.300903,253.161041 895.355164,261.106689 895.166138,270.352112 
	C894.987244,279.094879 889.839478,286.290924 881.313843,289.162201 
	C878.522278,290.102325 875.468933,290.265442 872.106934,290.779846 
z"/>
<path fill="#FEFEFE" opacity="1.000000" stroke="none" 
	d="
M1226.079346,341.862671 
	C1250.865967,336.861359 1269.957764,349.386169 1275.101685,373.658081 
	C1277.769897,386.247314 1277.589844,398.865631 1274.701050,411.325043 
	C1268.969116,436.046967 1251.173096,444.325317 1229.256104,441.545685 
	C1212.683350,439.443817 1202.000244,429.734497 1197.156006,413.981659 
	C1192.218628,397.926086 1192.451538,381.722595 1198.401001,365.938751 
	C1203.175537,353.272064 1212.177612,344.943390 1226.079346,341.862671 
z"/>
<path fill="#FEFEFE" opacity="1.000000" stroke="none" 
	d="
M1571.144165,391.009155 
	C1570.554932,397.615631 1570.551880,403.857147 1569.273682,409.825623 
	C1563.774292,435.504761 1543.120483,447.654785 1517.771362,440.404175 
	C1500.144653,435.362457 1492.332642,422.181915 1489.349731,405.334839 
	C1487.353760,394.061218 1487.796997,382.784515 1490.803101,371.678345 
	C1496.503296,350.617615 1511.647461,339.807526 1533.801147,340.959747 
	C1552.849976,341.950531 1566.880737,355.504974 1569.943237,376.111755 
	C1570.650146,380.868408 1570.759277,385.713928 1571.144165,391.009155 
z"/>
</svg>