<?xml version="1.0" encoding="UTF-8" standalone="no"?>
<svg
   id="TaskRabbit"
   data-name="TaskRabbit Logotype"
   viewBox="0 0 592 101"
   version="1.1"
   sodipodi:docname="tr_logo_new.svg"
   inkscape:version="1.1.2 (b8e25be8, 2022-02-05)"
   width="592"
   height="101"
   xmlns:inkscape="http://www.inkscape.org/namespaces/inkscape"
   xmlns:sodipodi="http://sodipodi.sourceforge.net/DTD/sodipodi-0.dtd"
   xmlns="http://www.w3.org/2000/svg"
   xmlns:svg="http://www.w3.org/2000/svg">
  <defs
     id="defs32" />
  <sodipodi:namedview
     id="namedview30"
     pagecolor="#ffffff"
     bordercolor="#666666"
     borderopacity="1.0"
     inkscape:pageshadow="2"
     inkscape:pageopacity="0.0"
     inkscape:pagecheckerboard="0"
     showgrid="false"
     inkscape:snap-global="true"
     inkscape:zoom="1.4093711"
     inkscape:cx="405.5"
     inkscape:cy="150.06693"
     inkscape:window-width="1312"
     inkscape:window-height="969"
     inkscape:window-x="216"
     inkscape:window-y="87"
     inkscape:window-maximized="0"
     inkscape:current-layer="TaskRabbit"
     width="592px" />
  <g
     id="g124"
     transform="translate(-103.31,-100.16)">
    <path
       d="m 115.83,178.45 v -37.66 h -12.52 v -13 h 12.52 V 109.5 h 14.41 v 18.26 h 17.88 v 13 h -17.88 v 37.66 c 0,4.81 2.11,7.36 6.76,7.36 h 10.48 v 13 H 137 c -12.3,0.04 -21.17,-7.88 -21.17,-20.33 z"
       style="fill:#0a2b14"
       id="path9" />
    <path
       d="m 186.54,187.22 c 12.52,0 22.09,-8.64 22.09,-23.92 0,-15.28 -9.57,-23.91 -22.09,-23.91 -12.52,0 -22.27,8.61 -22.27,23.91 0,15.3 9.6,23.92 22.27,23.92 z M 149.37,163.3 c 0,-24.48 16.47,-37.51 34.21,-37.51 10.55,0 19.57,4.11 25,12 V 127.76 H 223 v 71.06 h -14.37 v -10.07 c -5.48,7.9 -14.5,12 -25,12 -17.71,0 -34.21,-13 -34.21,-37.5 z"
       style="fill:#0a2b14"
       id="path11" />
    <path
       d="m 231.86,179.15 h 15 c 1.69,6.1 6.05,8.91 12.24,8.91 6.48,0 11,-3.38 11,-9.05 0,-16.56 -37.44,-2.26 -37.44,-31.28 0,-13.18 11.53,-21.93 25.19,-21.93 13.66,0 24.07,7.91 25.62,20.38 h -15 c -1.55,-5 -5.25,-7.64 -10.7,-7.64 -5.45,0 -10.27,3.12 -10.27,8.5 0,16.14 37.43,2 37.43,31.43 0,12.88 -11.24,22.4 -25.93,22.4 -14.69,0 -25.6,-8.17 -27.14,-21.72 z"
       style="fill:#0a2b14"
       id="path13" />
    <path
       d="m 332.68,127.8 h 15.63 L 324.83,160 351,198.82 h -16.75 l -25.5,-37.74 z M 294.4,109.36 h 14.41 v 89.46 h -14.4 z"
       style="fill:#0a2b14"
       id="path15" />
    <path
       d="m 355.34,127.76 h 14.41 v 10.54 a 28.87,28.87 0 0 1 24,-12.51 v 14.94 c -13.79,-2.4 -24.08,4.12 -24.08,18.56 v 39.53 H 355.3 Z"
       style="fill:#0a2b14"
       id="path17" />
    <path
       d="m 420.92,188.36 c 8.59,0 17.75,-5.52 17.75,-16.29 v -7.51 l -19.43,5.1 c -6.48,1.85 -9,4.68 -9,9.49 -0.02,6.37 4.76,9.21 10.68,9.21 z m -25.2,-8.21 c 0,-11.62 6.76,-17.94 20.42,-21.67 l 22.53,-6 v -4 c 0,-5.28 -4.37,-9.22 -12.11,-9.22 -6.34,0 -12.39,2.39 -14.41,10.61 h -15.44 c 2.54,-16.14 14.4,-24.2 29.85,-24.2 16.6,0 26.46,9 26.46,22.78 v 50.33 h -14.41 v -7.64 c -5.07,7 -13.52,9.64 -20.84,9.64 -12.47,0.04 -22.05,-6.94 -22.05,-20.63 z"
       style="fill:#0a2b14"
       id="path19" />
    <path
       d="m 499.23,187.22 c 12.54,0 22.11,-8.64 22.11,-23.92 0,-15.28 -9.57,-23.91 -22.11,-23.91 -12.54,0 -22.23,8.61 -22.23,23.91 0,15.3 9.57,23.92 22.23,23.92 z m -22.23,1.7 v 9.9 H 462.55 V 109.36 H 477 v 28.32 c 5.62,-7.79 14.49,-11.86 25.19,-11.86 17.6,0 34.21,13 34.21,37.52 0,24.52 -16.62,37.48 -34.22,37.48 -10.7,0 -19.57,-4.17 -25.19,-11.9 z"
       style="fill:#0a2b14"
       id="path21" />
    <path
       d="m 581.8,187.22 c 12.51,0 22.09,-8.64 22.09,-23.92 0,-15.28 -9.58,-23.91 -22.09,-23.91 -12.51,0 -22.27,8.61 -22.27,23.91 0,15.3 9.57,23.92 22.24,23.92 z m -22.27,1.7 v 9.9 h -14.42 v -89.46 h 14.41 v 28.32 c 5.62,-7.79 14.5,-11.86 25.2,-11.86 17.59,0 34.2,13 34.2,37.52 0,24.52 -16.6,37.48 -34.19,37.48 -10.73,0 -19.58,-4.17 -25.2,-11.9 z"
       style="fill:#0a2b14"
       id="path23" />
    <path
       d="m 627.4,127.76 h 14.44 v 71.06 h -14.41 z m 7.18,-27.6 a 9.24,9.24 0 0 1 3.93,0.91 9.2,9.2 0 0 1 5,10.11 9.16,9.16 0 0 1 -18.16,-1.8 9,9 0 0 1 0.62,-3.58 8.85,8.85 0 0 1 2,-3 9,9 0 0 1 3,-2 8.86,8.86 0 0 1 3.56,-0.62 z"
       style="fill:#0a2b14"
       id="path25" />
    <path
       d="m 662.17,178.45 v -37.66 h -12.54 v -13 h 12.54 V 109.5 h 14.41 v 18.26 h 17.88 v 13 h -17.88 v 37.66 c 0,4.81 2.1,7.36 6.75,7.36 h 10.48 v 13 H 683.33 C 671,198.82 662.17,190.9 662.17,178.45 Z"
       style="fill:#0a2b14"
       id="path27" />
  </g>
</svg>
