<svg xmlns="http://www.w3.org/2000/svg" xmlns:xlink="http://www.w3.org/1999/xlink" version="1.1" width="256" height="256" viewBox="0 0 256 256" xml:space="preserve">

<defs>
</defs>
<g style="stroke: none; stroke-width: 0; stroke-dasharray: none; stroke-linecap: butt; stroke-linejoin: miter; stroke-miterlimit: 10; fill: none; fill-rule: nonzero; opacity: 1;" transform="translate(1.4065934065934016 1.4065934065934016) scale(2.81 2.81)" >
	<path d="M 64.197 36.956 c -3.202 0 -5.807 2.605 -5.807 5.807 v 3.873 h 11.614 v -3.873 C 70.004 39.561 67.4 36.956 64.197 36.956 z" style="stroke: none; stroke-width: 1; stroke-dasharray: none; stroke-linecap: butt; stroke-linejoin: miter; stroke-miterlimit: 10; fill: rgb(255,255,255); fill-rule: nonzero; opacity: 1;" transform=" matrix(1 0 0 1 0 0) " stroke-linecap="round" />
	<path d="M 81.866 27.996 H 46.528 c -4.492 0 -8.134 3.642 -8.134 8.134 v 24.652 c 0 4.492 3.642 8.134 8.134 8.134 h 22.063 l 12.247 12.247 V 68.915 h 1.028 c 4.492 0 8.134 -3.642 8.134 -8.134 V 36.129 C 90 31.637 86.359 27.996 81.866 27.996 z M 73.96 60.627 c 0 1.092 -0.886 1.978 -1.978 1.978 s -1.978 -0.886 -1.978 -1.978 V 50.592 H 58.39 v 10.035 c 0 1.092 -0.886 1.978 -1.978 1.978 c -1.092 0 -1.978 -0.886 -1.978 -1.978 V 42.763 c 0 -5.384 4.379 -9.763 9.763 -9.763 c 5.384 0 9.764 4.38 9.764 9.763 V 60.627 z" style="stroke: none; stroke-width: 1; stroke-dasharray: none; stroke-linecap: butt; stroke-linejoin: miter; stroke-miterlimit: 10; fill: rgb(255,255,255); fill-rule: nonzero; opacity: 1;" transform=" matrix(1 0 0 1 0 0) " stroke-linecap="round" />
	<path d="M 34.438 35.14 c 0 -6.121 4.98 -11.101 11.101 -11.101 h 6.067 v -7.068 c 0 -4.492 -3.642 -8.134 -8.134 -8.134 H 8.134 C 3.641 8.838 0 12.48 0 16.972 v 24.652 c 0 4.492 3.641 8.134 8.134 8.134 h 1.028 v 12.247 l 12.247 -12.247 h 13.029 V 35.14 z M 29.931 38.563 c -0.389 0.507 -0.976 0.773 -1.57 0.773 c -0.421 0 -0.844 -0.133 -1.203 -0.41 c -1.339 -1.029 -2.593 -2.152 -3.772 -3.337 c -2.323 2.899 -4.81 5.502 -7.198 7.436 c -0.367 0.297 -0.806 0.441 -1.244 0.441 c -0.576 0 -1.147 -0.251 -1.538 -0.733 c -0.688 -0.849 -0.557 -2.094 0.292 -2.782 c 2.303 -1.865 4.743 -4.47 7.01 -7.363 c -1.512 -1.891 -2.832 -3.906 -3.904 -6.017 c -0.495 -0.974 -0.106 -2.165 0.868 -2.659 c 0.973 -0.496 2.164 -0.107 2.659 0.868 c 0.792 1.561 1.733 3.068 2.803 4.5 c 1.805 -2.629 3.395 -5.348 4.559 -7.878 H 10.9 c -1.092 0 -1.978 -0.886 -1.978 -1.978 c 0 -1.092 0.886 -1.978 1.978 -1.978 h 12.605 v -1.983 c 0 -1.092 0.886 -1.978 1.978 -1.978 c 1.092 0 1.978 0.886 1.978 1.978 v 1.983 h 13.15 c 1.092 0 1.978 0.886 1.978 1.978 c 0 1.092 -0.886 1.978 -1.978 1.978 h -8.613 c -1.408 3.482 -3.623 7.354 -6.207 10.996 c 1.166 1.212 2.424 2.351 3.776 3.39 C 30.433 36.455 30.596 37.696 29.931 38.563 z" style="stroke: none; stroke-width: 1; stroke-dasharray: none; stroke-linecap: butt; stroke-linejoin: miter; stroke-miterlimit: 10; fill: rgb(255,255,255); fill-rule: nonzero; opacity: 1;" transform=" matrix(1 0 0 1 0 0) " stroke-linecap="round" />
</g>
</svg>